solid Mesh
facet normal 0.0 0.0 -1.0
    outer loop
        vertex 40.0 24.75 14.75
        vertex 34.75 24.75 14.75
        vertex 34.75 30.0 14.75
    endloop
endfacet
facet normal 0.0 0.0 -1.0
    outer loop
        vertex 40.0 24.75 14.75
        vertex 45.25 30.0 14.75
        vertex 45.25 24.75 14.75
    endloop
endfacet
facet normal 0.0 0.0 -1.0
    outer loop
        vertex 40.0 35.25 14.75
        vertex 40.0 24.75 14.75
        vertex 34.75 30.0 14.75
    endloop
endfacet
facet normal 0.0 0.0 -1.0
    outer loop
        vertex 40.0 24.75 14.75
        vertex 40.0 35.25 14.75
        vertex 45.25 30.0 14.75
    endloop
endfacet
facet normal 0.0 0.0 -1.0
    outer loop
        vertex 40.0 35.25 14.75
        vertex 45.25 35.25 14.75
        vertex 45.25 30.0 14.75
    endloop
endfacet
facet normal 0.0 0.0 -1.0
    outer loop
        vertex 34.75 35.25 14.75
        vertex 40.0 35.25 14.75
        vertex 34.75 30.0 14.75
    endloop
endfacet
facet normal 0.0 -1.0 0.0
    outer loop
        vertex 42.625 24.75 18.6875
        vertex 40.0 24.75 18.6875
        vertex 40.0 24.75 17.375
    endloop
endfacet
facet normal 0.0 -1.0 0.0
    outer loop
        vertex 40.0 24.75 18.6875
        vertex 37.375 24.75 18.6875
        vertex 37.375 24.75 17.375
    endloop
endfacet
facet normal 0.0 -1.0 0.0
    outer loop
        vertex 37.375 24.75 17.375
        vertex 34.75 24.75 20.0
        vertex 34.75 24.75 14.75
    endloop
endfacet
facet normal 0.0 -1.0 0.0
    outer loop
        vertex 40.0 24.75 14.75
        vertex 37.375 24.75 17.375
        vertex 34.75 24.75 14.75
    endloop
endfacet
facet normal 0.0 -1.0 0.0
    outer loop
        vertex 40.0 24.75 14.75
        vertex 40.0 24.75 17.375
        vertex 37.375 24.75 17.375
    endloop
endfacet
facet normal 0.0 -1.0 0.0
    outer loop
        vertex 42.625 24.75 17.375
        vertex 40.0 24.75 17.375
        vertex 40.0 24.75 14.75
    endloop
endfacet
facet normal 0.0 -1.0 0.0
    outer loop
        vertex 37.375 24.75 18.6875
        vertex 40.0 24.75 18.6875
        vertex 38.9500007629 24.75 20.0
    endloop
endfacet
facet normal 0.0 -1.0 0.0
    outer loop
        vertex 37.375 24.75 18.6875
        vertex 34.75 24.75 20.0
        vertex 37.375 24.75 17.375
    endloop
endfacet
facet normal 0.0 -1.0 0.0
    outer loop
        vertex 37.375 24.75 18.6875
        vertex 35.7999992371 24.75 20.0
        vertex 34.75 24.75 20.0
    endloop
endfacet
facet normal 0.0 -1.0 0.0
    outer loop
        vertex 37.375 24.75 18.6875
        vertex 37.9000015259 24.75 20.0
        vertex 36.8499984741 24.75 20.0
    endloop
endfacet
facet normal 0.0 -1.0 0.0
    outer loop
        vertex 36.8499984741 24.75 20.0
        vertex 35.7999992371 24.75 20.0
        vertex 37.375 24.75 18.6875
    endloop
endfacet
facet normal 0.0 -1.0 0.0
    outer loop
        vertex 38.9500007629 24.75 20.0
        vertex 40.0 24.75 18.6875
        vertex 40.0 24.75 20.0
    endloop
endfacet
facet normal 0.0 -1.0 0.0
    outer loop
        vertex 40.0 24.75 18.6875
        vertex 41.0499992371 24.75 20.0
        vertex 40.0 24.75 20.0
    endloop
endfacet
facet normal 0.0 -1.0 0.0
    outer loop
        vertex 45.25 24.75 20.0
        vertex 42.625 24.75 18.6875
        vertex 42.625 24.75 17.375
    endloop
endfacet
facet normal 0.0 -1.0 0.0
    outer loop
        vertex 45.25 24.75 14.75
        vertex 45.25 24.75 20.0
        vertex 42.625 24.75 17.375
    endloop
endfacet
facet normal 0.0 -1.0 0.0
    outer loop
        vertex 42.625 24.75 17.375
        vertex 40.0 24.75 14.75
        vertex 45.25 24.75 14.75
    endloop
endfacet
facet normal 0.0 -1.0 0.0
    outer loop
        vertex 40.0 24.75 18.6875
        vertex 42.625 24.75 18.6875
        vertex 41.0499992371 24.75 20.0
    endloop
endfacet
facet normal 0.0 -1.0 0.0
    outer loop
        vertex 42.625 24.75 18.6875
        vertex 44.2000007629 24.75 20.0
        vertex 43.1500015259 24.75 20.0
    endloop
endfacet
facet normal 0.0 -1.0 0.0
    outer loop
        vertex 42.625 24.75 18.6875
        vertex 45.25 24.75 20.0
        vertex 44.2000007629 24.75 20.0
    endloop
endfacet
facet normal 0.0 -1.0 0.0
    outer loop
        vertex 43.1500015259 24.75 20.0
        vertex 42.0999984741 24.75 20.0
        vertex 42.625 24.75 18.6875
    endloop
endfacet
facet normal 1.0 0.0 0.0
    outer loop
        vertex 45.25 32.625 18.6875
        vertex 45.25 30.0 18.6875
        vertex 45.25 30.0 17.375
    endloop
endfacet
facet normal 1.0 0.0 0.0
    outer loop
        vertex 45.25 30.0 18.6875
        vertex 45.25 27.375 18.6875
        vertex 45.25 27.375 17.375
    endloop
endfacet
facet normal 1.0 0.0 0.0
    outer loop
        vertex 45.25 27.375 17.375
        vertex 45.25 24.75 20.0
        vertex 45.25 24.75 14.75
    endloop
endfacet
facet normal 1.0 0.0 0.0
    outer loop
        vertex 45.25 30.0 14.75
        vertex 45.25 27.375 17.375
        vertex 45.25 24.75 14.75
    endloop
endfacet
facet normal 1.0 0.0 0.0
    outer loop
        vertex 45.25 30.0 14.75
        vertex 45.25 30.0 17.375
        vertex 45.25 27.375 17.375
    endloop
endfacet
facet normal 1.0 0.0 0.0
    outer loop
        vertex 45.25 32.625 17.375
        vertex 45.25 30.0 17.375
        vertex 45.25 30.0 14.75
    endloop
endfacet
facet normal 1.0 0.0 0.0
    outer loop
        vertex 45.25 27.375 18.6875
        vertex 45.25 30.0 18.6875
        vertex 45.25 28.9500007629 20.0
    endloop
endfacet
facet normal 1.0 0.0 0.0
    outer loop
        vertex 45.25 27.375 18.6875
        vertex 45.25 24.75 20.0
        vertex 45.25 27.375 17.375
    endloop
endfacet
facet normal 1.0 0.0 0.0
    outer loop
        vertex 45.25 27.375 18.6875
        vertex 45.25 25.7999992371 20.0
        vertex 45.25 24.75 20.0
    endloop
endfacet
facet normal 1.0 0.0 0.0
    outer loop
        vertex 45.25 27.375 18.6875
        vertex 45.25 27.8999996185 20.0
        vertex 45.25 26.8500003815 20.0
    endloop
endfacet
facet normal 1.0 0.0 0.0
    outer loop
        vertex 45.25 26.8500003815 20.0
        vertex 45.25 25.7999992371 20.0
        vertex 45.25 27.375 18.6875
    endloop
endfacet
facet normal 1.0 0.0 0.0
    outer loop
        vertex 45.25 28.9500007629 20.0
        vertex 45.25 30.0 18.6875
        vertex 45.25 30.0 20.0
    endloop
endfacet
facet normal 1.0 0.0 0.0
    outer loop
        vertex 45.25 30.0 18.6875
        vertex 45.25 31.0499992371 20.0
        vertex 45.25 30.0 20.0
    endloop
endfacet
facet normal 1.0 0.0 0.0
    outer loop
        vertex 45.25 35.25 20.0
        vertex 45.25 32.625 18.6875
        vertex 45.25 32.625 17.375
    endloop
endfacet
facet normal 1.0 0.0 0.0
    outer loop
        vertex 45.25 35.25 14.75
        vertex 45.25 35.25 20.0
        vertex 45.25 32.625 17.375
    endloop
endfacet
facet normal 1.0 0.0 0.0
    outer loop
        vertex 45.25 32.625 17.375
        vertex 45.25 30.0 14.75
        vertex 45.25 35.25 14.75
    endloop
endfacet
facet normal 1.0 0.0 0.0
    outer loop
        vertex 45.25 30.0 18.6875
        vertex 45.25 32.625 18.6875
        vertex 45.25 31.0499992371 20.0
    endloop
endfacet
facet normal 1.0 0.0 0.0
    outer loop
        vertex 45.25 32.625 18.6875
        vertex 45.25 34.2000007629 20.0
        vertex 45.25 33.1500015259 20.0
    endloop
endfacet
facet normal 1.0 0.0 0.0
    outer loop
        vertex 45.25 32.625 18.6875
        vertex 45.25 35.25 20.0
        vertex 45.25 34.2000007629 20.0
    endloop
endfacet
facet normal 1.0 0.0 0.0
    outer loop
        vertex 45.25 33.1500015259 20.0
        vertex 45.25 32.0999984741 20.0
        vertex 45.25 32.625 18.6875
    endloop
endfacet
facet normal 0.0 1.0 0.0
    outer loop
        vertex 37.375 35.25 18.6875
        vertex 40.0 35.25 18.6875
        vertex 40.0 35.25 17.375
    endloop
endfacet
facet normal 0.0 1.0 0.0
    outer loop
        vertex 40.0 35.25 18.6875
        vertex 42.625 35.25 18.6875
        vertex 42.625 35.25 17.375
    endloop
endfacet
facet normal 0.0 1.0 0.0
    outer loop
        vertex 42.625 35.25 17.375
        vertex 45.25 35.25 20.0
        vertex 45.25 35.25 14.75
    endloop
endfacet
facet normal 0.0 1.0 0.0
    outer loop
        vertex 40.0 35.25 14.75
        vertex 42.625 35.25 17.375
        vertex 45.25 35.25 14.75
    endloop
endfacet
facet normal 0.0 1.0 0.0
    outer loop
        vertex 40.0 35.25 14.75
        vertex 40.0 35.25 17.375
        vertex 42.625 35.25 17.375
    endloop
endfacet
facet normal 0.0 1.0 0.0
    outer loop
        vertex 37.375 35.25 17.375
        vertex 40.0 35.25 17.375
        vertex 40.0 35.25 14.75
    endloop
endfacet
facet normal 0.0 1.0 0.0
    outer loop
        vertex 42.625 35.25 18.6875
        vertex 40.0 35.25 18.6875
        vertex 41.0499992371 35.25 20.0
    endloop
endfacet
facet normal 0.0 1.0 0.0
    outer loop
        vertex 42.625 35.25 18.6875
        vertex 45.25 35.25 20.0
        vertex 42.625 35.25 17.375
    endloop
endfacet
facet normal 0.0 1.0 0.0
    outer loop
        vertex 42.625 35.25 18.6875
        vertex 44.2000007629 35.25 20.0
        vertex 45.25 35.25 20.0
    endloop
endfacet
facet normal 0.0 1.0 0.0
    outer loop
        vertex 42.625 35.25 18.6875
        vertex 42.0999984741 35.25 20.0
        vertex 43.1500015259 35.25 20.0
    endloop
endfacet
facet normal 0.0 1.0 0.0
    outer loop
        vertex 43.1500015259 35.25 20.0
        vertex 44.2000007629 35.25 20.0
        vertex 42.625 35.25 18.6875
    endloop
endfacet
facet normal 0.0 1.0 0.0
    outer loop
        vertex 41.0499992371 35.25 20.0
        vertex 40.0 35.25 18.6875
        vertex 40.0 35.25 20.0
    endloop
endfacet
facet normal 0.0 1.0 0.0
    outer loop
        vertex 40.0 35.25 18.6875
        vertex 38.9500007629 35.25 20.0
        vertex 40.0 35.25 20.0
    endloop
endfacet
facet normal 0.0 1.0 0.0
    outer loop
        vertex 34.75 35.25 20.0
        vertex 37.375 35.25 18.6875
        vertex 37.375 35.25 17.375
    endloop
endfacet
facet normal 0.0 1.0 0.0
    outer loop
        vertex 34.75 35.25 14.75
        vertex 34.75 35.25 20.0
        vertex 37.375 35.25 17.375
    endloop
endfacet
facet normal 0.0 1.0 0.0
    outer loop
        vertex 37.375 35.25 17.375
        vertex 40.0 35.25 14.75
        vertex 34.75 35.25 14.75
    endloop
endfacet
facet normal 0.0 1.0 0.0
    outer loop
        vertex 40.0 35.25 18.6875
        vertex 37.375 35.25 18.6875
        vertex 38.9500007629 35.25 20.0
    endloop
endfacet
facet normal 0.0 1.0 0.0
    outer loop
        vertex 37.375 35.25 18.6875
        vertex 35.7999992371 35.25 20.0
        vertex 36.8499984741 35.25 20.0
    endloop
endfacet
facet normal 0.0 1.0 0.0
    outer loop
        vertex 37.375 35.25 18.6875
        vertex 34.75 35.25 20.0
        vertex 35.7999992371 35.25 20.0
    endloop
endfacet
facet normal 0.0 1.0 0.0
    outer loop
        vertex 36.8499984741 35.25 20.0
        vertex 37.9000015259 35.25 20.0
        vertex 37.375 35.25 18.6875
    endloop
endfacet
facet normal -1.0 0.0 0.0
    outer loop
        vertex 34.75 27.375 18.6875
        vertex 34.75 30.0 18.6875
        vertex 34.75 30.0 17.375
    endloop
endfacet
facet normal -1.0 0.0 0.0
    outer loop
        vertex 34.75 30.0 18.6875
        vertex 34.75 32.625 18.6875
        vertex 34.75 32.625 17.375
    endloop
endfacet
facet normal -1.0 0.0 0.0
    outer loop
        vertex 34.75 32.625 17.375
        vertex 34.75 35.25 20.0
        vertex 34.75 35.25 14.75
    endloop
endfacet
facet normal -1.0 0.0 0.0
    outer loop
        vertex 34.75 30.0 14.75
        vertex 34.75 32.625 17.375
        vertex 34.75 35.25 14.75
    endloop
endfacet
facet normal -1.0 0.0 0.0
    outer loop
        vertex 34.75 30.0 14.75
        vertex 34.75 30.0 17.375
        vertex 34.75 32.625 17.375
    endloop
endfacet
facet normal -1.0 0.0 0.0
    outer loop
        vertex 34.75 27.375 17.375
        vertex 34.75 30.0 17.375
        vertex 34.75 30.0 14.75
    endloop
endfacet
facet normal -1.0 0.0 0.0
    outer loop
        vertex 34.75 32.625 18.6875
        vertex 34.75 30.0 18.6875
        vertex 34.75 31.0499992371 20.0
    endloop
endfacet
facet normal -1.0 0.0 0.0
    outer loop
        vertex 34.75 32.625 18.6875
        vertex 34.75 35.25 20.0
        vertex 34.75 32.625 17.375
    endloop
endfacet
facet normal -1.0 0.0 0.0
    outer loop
        vertex 34.75 32.625 18.6875
        vertex 34.75 34.2000007629 20.0
        vertex 34.75 35.25 20.0
    endloop
endfacet
facet normal -1.0 0.0 0.0
    outer loop
        vertex 34.75 32.625 18.6875
        vertex 34.75 32.0999984741 20.0
        vertex 34.75 33.1500015259 20.0
    endloop
endfacet
facet normal -1.0 0.0 0.0
    outer loop
        vertex 34.75 33.1500015259 20.0
        vertex 34.75 34.2000007629 20.0
        vertex 34.75 32.625 18.6875
    endloop
endfacet
facet normal -1.0 0.0 0.0
    outer loop
        vertex 34.75 31.0499992371 20.0
        vertex 34.75 30.0 18.6875
        vertex 34.75 30.0 20.0
    endloop
endfacet
facet normal -1.0 0.0 0.0
    outer loop
        vertex 34.75 30.0 18.6875
        vertex 34.75 28.9500007629 20.0
        vertex 34.75 30.0 20.0
    endloop
endfacet
facet normal -1.0 0.0 0.0
    outer loop
        vertex 34.75 24.75 20.0
        vertex 34.75 27.375 18.6875
        vertex 34.75 27.375 17.375
    endloop
endfacet
facet normal -1.0 0.0 0.0
    outer loop
        vertex 34.75 24.75 14.75
        vertex 34.75 24.75 20.0
        vertex 34.75 27.375 17.375
    endloop
endfacet
facet normal -1.0 0.0 0.0
    outer loop
        vertex 34.75 27.375 17.375
        vertex 34.75 30.0 14.75
        vertex 34.75 24.75 14.75
    endloop
endfacet
facet normal -1.0 0.0 0.0
    outer loop
        vertex 34.75 30.0 18.6875
        vertex 34.75 27.375 18.6875
        vertex 34.75 28.9500007629 20.0
    endloop
endfacet
facet normal -1.0 0.0 0.0
    outer loop
        vertex 34.75 27.375 18.6875
        vertex 34.75 25.7999992371 20.0
        vertex 34.75 26.8500003815 20.0
    endloop
endfacet
facet normal -1.0 0.0 0.0
    outer loop
        vertex 34.75 27.375 18.6875
        vertex 34.75 24.75 20.0
        vertex 34.75 25.7999992371 20.0
    endloop
endfacet
facet normal -1.0 0.0 0.0
    outer loop
        vertex 34.75 26.8500003815 20.0
        vertex 34.75 27.8999996185 20.0
        vertex 34.75 27.375 18.6875
    endloop
endfacet
facet normal 0.0 0.0 1.0
    outer loop
        vertex 35.5 25.5 20.0
        vertex 35.0 26.0 20.0
        vertex 34.75 25.7999992371 20.0
    endloop
endfacet
facet normal 0.0 0.0 1.0
    outer loop
        vertex 35.0 26.0 20.0
        vertex 35.0 27.0 20.0
        vertex 34.75 26.8500003815 20.0
    endloop
endfacet
facet normal 0.0 0.0 1.0
    outer loop
        vertex 34.75 27.8999996185 20.0
        vertex 34.75 26.8500003815 20.0
        vertex 35.0 27.0 20.0
    endloop
endfacet
facet normal 0.0 0.0 1.0
    outer loop
        vertex 35.5 25.5 20.0
        vertex 34.75 25.7999992371 20.0
        vertex 34.75 24.75 20.0
    endloop
endfacet
facet normal 0.0 0.0 1.0
    outer loop
        vertex 34.75 28.9500007629 20.0
        vertex 34.75 27.8999996185 20.0
        vertex 35.0 28.0 20.0
    endloop
endfacet
facet normal 0.0 0.0 1.0
    outer loop
        vertex 34.75 30.0 20.0
        vertex 34.75 28.9500007629 20.0
        vertex 35.0 29.0 20.0
    endloop
endfacet
facet normal 0.0 0.0 1.0
    outer loop
        vertex 35.7999992371 24.75 20.0
        vertex 36.8499984741 24.75 20.0
        vertex 36.0 25.0 20.0
    endloop
endfacet
facet normal 0.0 0.0 1.0
    outer loop
        vertex 38.0 25.0 20.0
        vertex 37.9000015259 24.75 20.0
        vertex 38.9500007629 24.75 20.0
    endloop
endfacet
facet normal 0.0 0.0 1.0
    outer loop
        vertex 39.0 25.0 20.0
        vertex 38.9500007629 24.75 20.0
        vertex 40.0 24.75 20.0
    endloop
endfacet
facet normal 0.0 0.0 1.0
    outer loop
        vertex 36.8499984741 24.75 20.0
        vertex 37.9000015259 24.75 20.0
        vertex 37.0 25.0 20.0
    endloop
endfacet
facet normal 0.0 0.0 1.0
    outer loop
        vertex 35.7999992371 24.75 20.0
        vertex 36.0 25.0 20.0
        vertex 35.5 25.5 20.0
    endloop
endfacet
facet normal 0.0 0.0 1.0
    outer loop
        vertex 38.9500007629 24.75 20.0
        vertex 39.0 25.0 20.0
        vertex 38.0 25.0 20.0
    endloop
endfacet
facet normal 0.0 0.0 1.0
    outer loop
        vertex 34.75 24.75 20.0
        vertex 35.7999992371 24.75 20.0
        vertex 35.5 25.5 20.0
    endloop
endfacet
facet normal 0.0 0.0 1.0
    outer loop
        vertex 34.75 31.0499992371 20.0
        vertex 34.75 30.0 20.0
        vertex 35.0 31.0 20.0
    endloop
endfacet
facet normal 0.0 0.0 1.0
    outer loop
        vertex 34.75 32.0999984741 20.0
        vertex 34.75 31.0499992371 20.0
        vertex 35.0 32.0 20.0
    endloop
endfacet
facet normal 0.0 0.0 1.0
    outer loop
        vertex 35.0 32.0 20.0
        vertex 35.0 33.0 20.0
        vertex 34.75 32.0999984741 20.0
    endloop
endfacet
facet normal 0.0 0.0 1.0
    outer loop
        vertex 34.75 34.2000007629 20.0
        vertex 34.75 33.1500015259 20.0
        vertex 35.0 34.0 20.0
    endloop
endfacet
facet normal 0.0 0.0 1.0
    outer loop
        vertex 35.5 34.5 20.0
        vertex 34.75 35.25 20.0
        vertex 34.75 34.2000007629 20.0
    endloop
endfacet
facet normal 0.0 0.0 1.0
    outer loop
        vertex 35.0 34.0 20.0
        vertex 35.5 34.5 20.0
        vertex 34.75 34.2000007629 20.0
    endloop
endfacet
facet normal 0.0 0.0 1.0
    outer loop
        vertex 35.7999992371 35.25 20.0
        vertex 35.5 34.5 20.0
        vertex 36.0 35.0 20.0
    endloop
endfacet
facet normal 0.0 0.0 1.0
    outer loop
        vertex 36.0 35.0 20.0
        vertex 37.0 35.0 20.0
        vertex 36.8499984741 35.25 20.0
    endloop
endfacet
facet normal 0.0 0.0 1.0
    outer loop
        vertex 38.0 35.0 20.0
        vertex 37.9000015259 35.25 20.0
        vertex 37.0 35.0 20.0
    endloop
endfacet
facet normal 0.0 0.0 1.0
    outer loop
        vertex 39.0 35.0 20.0
        vertex 38.9500007629 35.25 20.0
        vertex 38.0 35.0 20.0
    endloop
endfacet
facet normal 0.0 0.0 1.0
    outer loop
        vertex 37.9000015259 35.25 20.0
        vertex 38.0 35.0 20.0
        vertex 38.9500007629 35.25 20.0
    endloop
endfacet
facet normal 0.0 0.0 1.0
    outer loop
        vertex 37.0 35.0 20.0
        vertex 37.9000015259 35.25 20.0
        vertex 36.8499984741 35.25 20.0
    endloop
endfacet
facet normal 0.0 0.0 1.0
    outer loop
        vertex 39.0 35.0 20.0
        vertex 40.0 35.0 20.0
        vertex 40.0 35.25 20.0
    endloop
endfacet
facet normal 0.0 0.0 1.0
    outer loop
        vertex 34.75 35.25 20.0
        vertex 35.5 34.5 20.0
        vertex 35.7999992371 35.25 20.0
    endloop
endfacet
facet normal 0.0 0.0 1.0
    outer loop
        vertex 40.0 25.0 20.0
        vertex 39.0 25.0 20.0
        vertex 40.0 24.75 20.0
    endloop
endfacet
facet normal 0.0 0.0 1.0
    outer loop
        vertex 41.0 25.0 20.0
        vertex 40.0 25.0 20.0
        vertex 40.0 24.75 20.0
    endloop
endfacet
facet normal 0.0 0.0 1.0
    outer loop
        vertex 42.0999984741 24.75 20.0
        vertex 42.0 25.0 20.0
        vertex 41.0499992371 24.75 20.0
    endloop
endfacet
facet normal 0.0 0.0 1.0
    outer loop
        vertex 43.1500015259 24.75 20.0
        vertex 43.0 25.0 20.0
        vertex 42.0999984741 24.75 20.0
    endloop
endfacet
facet normal 0.0 0.0 1.0
    outer loop
        vertex 44.2000007629 24.75 20.0
        vertex 44.0 25.0 20.0
        vertex 43.1500015259 24.75 20.0
    endloop
endfacet
facet normal 0.0 0.0 1.0
    outer loop
        vertex 42.0 25.0 20.0
        vertex 41.0 25.0 20.0
        vertex 41.0499992371 24.75 20.0
    endloop
endfacet
facet normal 0.0 0.0 1.0
    outer loop
        vertex 43.1500015259 24.75 20.0
        vertex 44.0 25.0 20.0
        vertex 43.0 25.0 20.0
    endloop
endfacet
facet normal 0.0 0.0 1.0
    outer loop
        vertex 44.2000007629 24.75 20.0
        vertex 44.5 25.5 20.0
        vertex 44.0 25.0 20.0
    endloop
endfacet
facet normal 0.0 0.0 1.0
    outer loop
        vertex 42.0 25.0 20.0
        vertex 42.0999984741 24.75 20.0
        vertex 43.0 25.0 20.0
    endloop
endfacet
facet normal 0.0 0.0 1.0
    outer loop
        vertex 44.5 25.5 20.0
        vertex 44.2000007629 24.75 20.0
        vertex 45.25 24.75 20.0
    endloop
endfacet
facet normal 0.0 0.0 1.0
    outer loop
        vertex 45.25 26.8500003815 20.0
        vertex 45.0 27.0 20.0
        vertex 45.0 26.0 20.0
    endloop
endfacet
facet normal 0.0 0.0 1.0
    outer loop
        vertex 44.5 25.5 20.0
        vertex 45.25 25.7999992371 20.0
        vertex 45.0 26.0 20.0
    endloop
endfacet
facet normal 0.0 0.0 1.0
    outer loop
        vertex 45.0 26.0 20.0
        vertex 45.25 25.7999992371 20.0
        vertex 45.25 26.8500003815 20.0
    endloop
endfacet
facet normal 0.0 0.0 1.0
    outer loop
        vertex 45.25 25.7999992371 20.0
        vertex 44.5 25.5 20.0
        vertex 45.25 24.75 20.0
    endloop
endfacet
facet normal 0.0 0.0 1.0
    outer loop
        vertex 45.25 27.8999996185 20.0
        vertex 45.0 27.0 20.0
        vertex 45.25 26.8500003815 20.0
    endloop
endfacet
facet normal 0.0 0.0 1.0
    outer loop
        vertex 45.0 29.0 20.0
        vertex 45.25 30.0 20.0
        vertex 45.0 30.0 20.0
    endloop
endfacet
facet normal 0.0 0.0 1.0
    outer loop
        vertex 45.25 28.9500007629 20.0
        vertex 45.0 28.0 20.0
        vertex 45.25 27.8999996185 20.0
    endloop
endfacet
facet normal 0.0 0.0 1.0
    outer loop
        vertex 45.0 27.0 20.0
        vertex 45.25 27.8999996185 20.0
        vertex 45.0 28.0 20.0
    endloop
endfacet
facet normal 0.0 0.0 1.0
    outer loop
        vertex 45.0 29.0 20.0
        vertex 45.0 28.0 20.0
        vertex 45.25 28.9500007629 20.0
    endloop
endfacet
facet normal 0.0 0.0 1.0
    outer loop
        vertex 45.25 28.9500007629 20.0
        vertex 45.25 30.0 20.0
        vertex 45.0 29.0 20.0
    endloop
endfacet
facet normal 0.0 0.0 1.0
    outer loop
        vertex 41.0 35.0 20.0
        vertex 42.0 35.0 20.0
        vertex 41.0499992371 35.25 20.0
    endloop
endfacet
facet normal 0.0 0.0 1.0
    outer loop
        vertex 44.2000007629 35.25 20.0
        vertex 44.0 35.0 20.0
        vertex 44.5 34.5 20.0
    endloop
endfacet
facet normal 0.0 0.0 1.0
    outer loop
        vertex 43.0 35.0 20.0
        vertex 44.0 35.0 20.0
        vertex 43.1500015259 35.25 20.0
    endloop
endfacet
facet normal 0.0 0.0 1.0
    outer loop
        vertex 43.0 35.0 20.0
        vertex 42.0999984741 35.25 20.0
        vertex 42.0 35.0 20.0
    endloop
endfacet
facet normal 0.0 0.0 1.0
    outer loop
        vertex 41.0 35.0 20.0
        vertex 41.0499992371 35.25 20.0
        vertex 40.0 35.25 20.0
    endloop
endfacet
facet normal 0.0 0.0 1.0
    outer loop
        vertex 43.0 35.0 20.0
        vertex 43.1500015259 35.25 20.0
        vertex 42.0999984741 35.25 20.0
    endloop
endfacet
facet normal 0.0 0.0 1.0
    outer loop
        vertex 44.2000007629 35.25 20.0
        vertex 44.5 34.5 20.0
        vertex 45.25 35.25 20.0
    endloop
endfacet
facet normal 0.0 0.0 1.0
    outer loop
        vertex 40.0 35.25 20.0
        vertex 40.0 35.0 20.0
        vertex 41.0 35.0 20.0
    endloop
endfacet
facet normal 0.0 0.0 1.0
    outer loop
        vertex 45.25 31.0499992371 20.0
        vertex 45.0 32.0 20.0
        vertex 45.0 31.0 20.0
    endloop
endfacet
facet normal 0.0 0.0 1.0
    outer loop
        vertex 45.0 31.0 20.0
        vertex 45.25 30.0 20.0
        vertex 45.25 31.0499992371 20.0
    endloop
endfacet
facet normal 0.0 0.0 1.0
    outer loop
        vertex 45.0 32.0 20.0
        vertex 45.25 31.0499992371 20.0
        vertex 45.25 32.0999984741 20.0
    endloop
endfacet
facet normal 0.0 0.0 1.0
    outer loop
        vertex 45.0 33.0 20.0
        vertex 45.0 32.0 20.0
        vertex 45.25 32.0999984741 20.0
    endloop
endfacet
facet normal 0.0 0.0 1.0
    outer loop
        vertex 45.25 33.1500015259 20.0
        vertex 45.0 34.0 20.0
        vertex 45.0 33.0 20.0
    endloop
endfacet
facet normal 0.0 0.0 1.0
    outer loop
        vertex 45.0 34.0 20.0
        vertex 45.25 33.1500015259 20.0
        vertex 45.25 34.2000007629 20.0
    endloop
endfacet
facet normal 0.0 0.0 1.0
    outer loop
        vertex 45.25 34.2000007629 20.0
        vertex 45.25 35.25 20.0
        vertex 44.5 34.5 20.0
    endloop
endfacet
facet normal 0.0 0.0 1.0
    outer loop
        vertex 45.25 33.1500015259 20.0
        vertex 45.0 33.0 20.0
        vertex 45.25 32.0999984741 20.0
    endloop
endfacet
facet normal 0.0 0.0 1.0
    outer loop
        vertex 45.0 34.0 20.0
        vertex 45.25 34.2000007629 20.0
        vertex 44.5 34.5 20.0
    endloop
endfacet
facet normal 0.0 0.0 1.0
    outer loop
        vertex 45.0 30.0 20.0
        vertex 45.25 30.0 20.0
        vertex 45.0 31.0 20.0
    endloop
endfacet
facet normal 0.0 0.0 1.0
    outer loop
        vertex 38.6666679382 27.3333339691 15.0
        vertex 41.3333320618 27.3333339691 15.0
        vertex 42.0 32.0 15.0
    endloop
endfacet
facet normal 0.0 0.0 1.0
    outer loop
        vertex 40.0 26.0 15.0
        vertex 41.3333320618 27.3333339691 15.0
        vertex 38.6666679382 27.3333339691 15.0
    endloop
endfacet
facet normal 0.0 0.0 1.0
    outer loop
        vertex 42.0 32.0 15.0
        vertex 41.3333320618 27.3333339691 15.0
        vertex 42.6666679382 28.6666660309 15.0
    endloop
endfacet
facet normal 0.0 0.0 1.0
    outer loop
        vertex 38.0 32.0 15.0
        vertex 37.3333320618 28.6666660309 15.0
        vertex 38.6666679382 27.3333339691 15.0
    endloop
endfacet
facet normal 0.0 0.0 1.0
    outer loop
        vertex 38.6666679382 27.3333339691 15.0
        vertex 42.0 32.0 15.0
        vertex 38.0 32.0 15.0
    endloop
endfacet
facet normal 0.0 0.0 1.0
    outer loop
        vertex 42.6666679382 28.6666660309 15.0
        vertex 44.0 30.0 15.0
        vertex 42.0 32.0 15.0
    endloop
endfacet
facet normal 0.0 0.0 1.0
    outer loop
        vertex 40.0 34.0 15.0
        vertex 38.0 32.0 15.0
        vertex 42.0 32.0 15.0
    endloop
endfacet
facet normal 0.0 0.0 1.0
    outer loop
        vertex 38.0 32.0 15.0
        vertex 36.0 30.0 15.0
        vertex 37.3333320618 28.6666660309 15.0
    endloop
endfacet
facet normal 0.577350544492 0.577349718585 0.577350544492
    outer loop
        vertex 37.3333320618 28.6666660309 15.0
        vertex 36.0 30.0 15.0
        vertex 35.0 30.0 16.0
    endloop
endfacet
facet normal 0.577350583821 0.577350111874 0.577350111874
    outer loop
        vertex 35.0 29.0 17.0
        vertex 37.3333320618 28.6666660309 15.0
        vertex 35.0 30.0 16.0
    endloop
endfacet
facet normal 0.577350583821 0.577350111874 0.577350111874
    outer loop
        vertex 37.3333320618 28.6666660309 15.0
        vertex 35.0 29.0 17.0
        vertex 35.0 28.0 18.0
    endloop
endfacet
facet normal 0.57735026919 0.57735026919 0.57735026919
    outer loop
        vertex 35.0 27.0 19.0
        vertex 35.0 26.0 20.0
        vertex 35.5 25.5 20.0
    endloop
endfacet
facet normal 0.57735026919 0.57735026919 0.57735026919
    outer loop
        vertex 38.0 25.0 18.0
        vertex 35.0 28.0 18.0
        vertex 35.0 27.0 19.0
    endloop
endfacet
facet normal 0.577349718585 0.577351370397 0.577349718585
    outer loop
        vertex 37.3333320618 28.6666660309 15.0
        vertex 35.0 28.0 18.0
        vertex 38.6666679382 27.3333339691 15.0
    endloop
endfacet
facet normal 0.577350426505 0.577349954559 0.577350426505
    outer loop
        vertex 38.0 25.0 18.0
        vertex 39.0 25.0 17.0
        vertex 38.6666679382 27.3333339691 15.0
    endloop
endfacet
facet normal 0.577350426505 0.577349954559 0.577350426505
    outer loop
        vertex 40.0 25.0 16.0
        vertex 38.6666679382 27.3333339691 15.0
        vertex 39.0 25.0 17.0
    endloop
endfacet
facet normal 0.577350819794 0.577349993887 0.577349993887
    outer loop
        vertex 38.6666679382 27.3333339691 15.0
        vertex 40.0 25.0 16.0
        vertex 40.0 26.0 15.0
    endloop
endfacet
facet normal 0.57735026919 0.57735026919 0.57735026919
    outer loop
        vertex 37.0 25.0 19.0
        vertex 35.5 25.5 20.0
        vertex 36.0 25.0 20.0
    endloop
endfacet
facet normal 0.57735026919 0.57735026919 0.57735026919
    outer loop
        vertex 37.0 25.0 19.0
        vertex 35.0 27.0 19.0
        vertex 35.5 25.5 20.0
    endloop
endfacet
facet normal 0.57735026919 0.57735026919 0.57735026919
    outer loop
        vertex 35.0 27.0 19.0
        vertex 37.0 25.0 19.0
        vertex 38.0 25.0 18.0
    endloop
endfacet
facet normal 0.577350146833 0.577350146833 0.577350513902
    outer loop
        vertex 38.0 25.0 18.0
        vertex 38.6666679382 27.3333339691 15.0
        vertex 35.0 28.0 18.0
    endloop
endfacet
facet normal -0.577350819794 0.577349993887 0.577349993887
    outer loop
        vertex 41.3333320618 27.3333339691 15.0
        vertex 40.0 26.0 15.0
        vertex 40.0 25.0 16.0
    endloop
endfacet
facet normal -0.577350426505 0.577349954559 0.577350426505
    outer loop
        vertex 41.0 25.0 17.0
        vertex 41.3333320618 27.3333339691 15.0
        vertex 40.0 25.0 16.0
    endloop
endfacet
facet normal -0.577350426505 0.577349954559 0.577350426505
    outer loop
        vertex 41.3333320618 27.3333339691 15.0
        vertex 41.0 25.0 17.0
        vertex 42.0 25.0 18.0
    endloop
endfacet
facet normal -0.57735026919 0.57735026919 0.57735026919
    outer loop
        vertex 43.0 25.0 19.0
        vertex 44.0 25.0 20.0
        vertex 44.5 25.5 20.0
    endloop
endfacet
facet normal -0.57735026919 0.57735026919 0.57735026919
    outer loop
        vertex 45.0 28.0 18.0
        vertex 42.0 25.0 18.0
        vertex 43.0 25.0 19.0
    endloop
endfacet
facet normal -0.577349167982 0.577350819793 0.577350819793
    outer loop
        vertex 41.3333320618 27.3333339691 15.0
        vertex 42.0 25.0 18.0
        vertex 42.6666679382 28.6666660309 15.0
    endloop
endfacet
facet normal -0.577350544492 0.577349718585 0.577350544492
    outer loop
        vertex 45.0 30.0 16.0
        vertex 44.0 30.0 15.0
        vertex 42.6666679382 28.6666660309 15.0
    endloop
endfacet
facet normal -0.577350583821 0.577350111874 0.577350111874
    outer loop
        vertex 42.6666679382 28.6666660309 15.0
        vertex 45.0 29.0 17.0
        vertex 45.0 30.0 16.0
    endloop
endfacet
facet normal -0.577350583821 0.577350111874 0.577350111874
    outer loop
        vertex 45.0 28.0 18.0
        vertex 45.0 29.0 17.0
        vertex 42.6666679382 28.6666660309 15.0
    endloop
endfacet
facet normal -0.57735026919 0.57735026919 0.57735026919
    outer loop
        vertex 45.0 27.0 19.0
        vertex 44.5 25.5 20.0
        vertex 45.0 26.0 20.0
    endloop
endfacet
facet normal -0.57735026919 0.57735026919 0.57735026919
    outer loop
        vertex 45.0 27.0 19.0
        vertex 43.0 25.0 19.0
        vertex 44.5 25.5 20.0
    endloop
endfacet
facet normal -0.57735026919 0.57735026919 0.57735026919
    outer loop
        vertex 43.0 25.0 19.0
        vertex 45.0 27.0 19.0
        vertex 45.0 28.0 18.0
    endloop
endfacet
facet normal -0.577350391546 0.577350391546 0.577350024477
    outer loop
        vertex 45.0 28.0 18.0
        vertex 42.6666679382 28.6666660309 15.0
        vertex 42.0 25.0 18.0
    endloop
endfacet
facet normal 0.0 1.0 0.0
    outer loop
        vertex 37.0 25.0 19.0
        vertex 36.0 25.0 20.0
        vertex 37.0 25.0 20.0
    endloop
endfacet
facet normal 0.0 1.0 0.0
    outer loop
        vertex 39.0 25.0 20.0
        vertex 38.0 25.0 18.0
        vertex 37.0 25.0 19.0
    endloop
endfacet
facet normal 0.0 1.0 0.0
    outer loop
        vertex 40.0 25.0 20.0
        vertex 42.0 25.0 18.0
        vertex 38.0 25.0 18.0
    endloop
endfacet
facet normal 0.0 1.0 0.0
    outer loop
        vertex 37.0 25.0 19.0
        vertex 37.0 25.0 20.0
        vertex 38.0 25.0 20.0
    endloop
endfacet
facet normal 0.0 1.0 0.0
    outer loop
        vertex 38.0 25.0 18.0
        vertex 39.0 25.0 20.0
        vertex 40.0 25.0 20.0
    endloop
endfacet
facet normal 0.0 1.0 0.0
    outer loop
        vertex 39.0 25.0 20.0
        vertex 37.0 25.0 19.0
        vertex 38.0 25.0 20.0
    endloop
endfacet
facet normal 0.0 1.0 0.0
    outer loop
        vertex 42.0 25.0 18.0
        vertex 39.0 25.0 17.0
        vertex 38.0 25.0 18.0
    endloop
endfacet
facet normal 0.0 1.0 0.0
    outer loop
        vertex 39.0 25.0 17.0
        vertex 42.0 25.0 18.0
        vertex 41.0 25.0 17.0
    endloop
endfacet
facet normal 0.0 1.0 0.0
    outer loop
        vertex 41.0 25.0 20.0
        vertex 42.0 25.0 18.0
        vertex 40.0 25.0 20.0
    endloop
endfacet
facet normal 0.0 1.0 0.0
    outer loop
        vertex 43.0 25.0 19.0
        vertex 42.0 25.0 18.0
        vertex 41.0 25.0 20.0
    endloop
endfacet
facet normal 0.0 1.0 0.0
    outer loop
        vertex 43.0 25.0 19.0
        vertex 41.0 25.0 20.0
        vertex 42.0 25.0 20.0
    endloop
endfacet
facet normal 0.0 1.0 0.0
    outer loop
        vertex 43.0 25.0 19.0
        vertex 43.0 25.0 20.0
        vertex 44.0 25.0 20.0
    endloop
endfacet
facet normal 0.0 1.0 0.0
    outer loop
        vertex 43.0 25.0 20.0
        vertex 43.0 25.0 19.0
        vertex 42.0 25.0 20.0
    endloop
endfacet
facet normal 0.0 1.0 0.0
    outer loop
        vertex 40.0 25.0 16.0
        vertex 39.0 25.0 17.0
        vertex 41.0 25.0 17.0
    endloop
endfacet
facet normal -0.57735026919 -0.57735026919 0.57735026919
    outer loop
        vertex 45.0 30.0 16.0
        vertex 42.0 32.0 15.0
        vertex 44.0 30.0 15.0
    endloop
endfacet
facet normal -0.57735026919 -0.57735026919 0.57735026919
    outer loop
        vertex 42.0 32.0 15.0
        vertex 45.0 30.0 16.0
        vertex 45.0 32.0 18.0
    endloop
endfacet
facet normal -0.57735026919 -0.57735026919 0.57735026919
    outer loop
        vertex 45.0 32.0 18.0
        vertex 45.0 34.0 20.0
        vertex 44.5 34.5 20.0
    endloop
endfacet
facet normal -0.57735026919 -0.57735026919 0.57735026919
    outer loop
        vertex 42.0 35.0 18.0
        vertex 42.0 32.0 15.0
        vertex 45.0 32.0 18.0
    endloop
endfacet
facet normal -0.57735026919 -0.57735026919 0.57735026919
    outer loop
        vertex 42.0 32.0 15.0
        vertex 42.0 35.0 18.0
        vertex 40.0 35.0 16.0
    endloop
endfacet
facet normal -0.57735026919 -0.57735026919 0.57735026919
    outer loop
        vertex 44.0 35.0 20.0
        vertex 42.0 35.0 18.0
        vertex 44.5 34.5 20.0
    endloop
endfacet
facet normal -0.57735026919 -0.57735026919 0.57735026919
    outer loop
        vertex 42.0 35.0 18.0
        vertex 45.0 32.0 18.0
        vertex 44.5 34.5 20.0
    endloop
endfacet
facet normal -0.57735026919 -0.57735026919 0.57735026919
    outer loop
        vertex 40.0 35.0 16.0
        vertex 40.0 34.0 15.0
        vertex 42.0 32.0 15.0
    endloop
endfacet
facet normal -1.0 0.0 0.0
    outer loop
        vertex 45.0 30.0 20.0
        vertex 45.0 28.0 18.0
        vertex 45.0 29.0 20.0
    endloop
endfacet
facet normal -1.0 0.0 0.0
    outer loop
        vertex 45.0 29.0 20.0
        vertex 45.0 28.0 18.0
        vertex 45.0 27.0 19.0
    endloop
endfacet
facet normal -1.0 0.0 0.0
    outer loop
        vertex 45.0 27.0 19.0
        vertex 45.0 26.0 20.0
        vertex 45.0 27.0 20.0
    endloop
endfacet
facet normal -1.0 0.0 0.0
    outer loop
        vertex 45.0 27.0 19.0
        vertex 45.0 28.0 20.0
        vertex 45.0 29.0 20.0
    endloop
endfacet
facet normal -1.0 0.0 0.0
    outer loop
        vertex 45.0 28.0 20.0
        vertex 45.0 27.0 19.0
        vertex 45.0 27.0 20.0
    endloop
endfacet
facet normal -1.0 0.0 0.0
    outer loop
        vertex 45.0 32.0 18.0
        vertex 45.0 29.0 17.0
        vertex 45.0 28.0 18.0
    endloop
endfacet
facet normal -1.0 0.0 0.0
    outer loop
        vertex 45.0 30.0 20.0
        vertex 45.0 32.0 18.0
        vertex 45.0 28.0 18.0
    endloop
endfacet
facet normal -1.0 0.0 0.0
    outer loop
        vertex 45.0 30.0 16.0
        vertex 45.0 29.0 17.0
        vertex 45.0 32.0 18.0
    endloop
endfacet
facet normal -1.0 0.0 0.0
    outer loop
        vertex 45.0 31.0 20.0
        vertex 45.0 32.0 18.0
        vertex 45.0 30.0 20.0
    endloop
endfacet
facet normal -1.0 0.0 0.0
    outer loop
        vertex 45.0 32.0 18.0
        vertex 45.0 31.0 20.0
        vertex 45.0 32.0 20.0
    endloop
endfacet
facet normal -1.0 0.0 0.0
    outer loop
        vertex 45.0 32.0 18.0
        vertex 45.0 33.0 20.0
        vertex 45.0 34.0 20.0
    endloop
endfacet
facet normal -1.0 0.0 0.0
    outer loop
        vertex 45.0 33.0 20.0
        vertex 45.0 32.0 18.0
        vertex 45.0 32.0 20.0
    endloop
endfacet
facet normal 0.57735026919 -0.57735026919 0.57735026919
    outer loop
        vertex 36.125 33.875 18.75
        vertex 36.75 33.25 17.5
        vertex 37.375 33.875 17.5
    endloop
endfacet
facet normal 0.57735026919 -0.57735026919 0.57735026919
    outer loop
        vertex 35.5 33.25 18.75
        vertex 36.125 32.625 17.5
        vertex 36.75 33.25 17.5
    endloop
endfacet
facet normal 0.57735026919 -0.57735026919 0.57735026919
    outer loop
        vertex 40.0 34.0 15.0
        vertex 40.0 35.0 16.0
        vertex 38.0 35.0 18.0
    endloop
endfacet
facet normal 0.57735026919 -0.57735026919 0.57735026919
    outer loop
        vertex 36.75 33.25 17.5
        vertex 38.0 32.0 15.0
        vertex 37.375 33.875 17.5
    endloop
endfacet
facet normal 0.57735026919 -0.57735026919 0.57735026919
    outer loop
        vertex 40.0 34.0 15.0
        vertex 37.375 33.875 17.5
        vertex 38.0 32.0 15.0
    endloop
endfacet
facet normal 0.57735026919 -0.57735026919 0.57735026919
    outer loop
        vertex 37.375 33.875 17.5
        vertex 40.0 34.0 15.0
        vertex 38.0 35.0 18.0
    endloop
endfacet
facet normal 0.57735026919 -0.57735026919 0.57735026919
    outer loop
        vertex 36.0 35.0 20.0
        vertex 36.75 34.5 18.75
        vertex 38.0 35.0 18.0
    endloop
endfacet
facet normal 0.57735026919 -0.57735026919 0.57735026919
    outer loop
        vertex 36.75 34.5 18.75
        vertex 37.375 33.875 17.5
        vertex 38.0 35.0 18.0
    endloop
endfacet
facet normal 0.57735026919 -0.57735026919 0.57735026919
    outer loop
        vertex 36.75 34.5 18.75
        vertex 36.0 35.0 20.0
        vertex 36.125 33.875 18.75
    endloop
endfacet
facet normal 0.57735026919 -0.57735026919 0.57735026919
    outer loop
        vertex 36.75 33.25 17.5
        vertex 36.125 32.625 17.5
        vertex 38.0 32.0 15.0
    endloop
endfacet
facet normal 0.57735026919 -0.57735026919 0.57735026919
    outer loop
        vertex 35.5 33.25 18.75
        vertex 35.0 32.0 18.0
        vertex 36.125 32.625 17.5
    endloop
endfacet
facet normal 0.57735026919 -0.57735026919 0.57735026919
    outer loop
        vertex 36.0 30.0 15.0
        vertex 36.125 32.625 17.5
        vertex 35.0 32.0 18.0
    endloop
endfacet
facet normal 0.57735026919 -0.57735026919 0.57735026919
    outer loop
        vertex 35.0 32.0 18.0
        vertex 35.0 30.0 16.0
        vertex 36.0 30.0 15.0
    endloop
endfacet
facet normal 0.57735026919 -0.57735026919 0.57735026919
    outer loop
        vertex 36.0 30.0 15.0
        vertex 38.0 32.0 15.0
        vertex 36.125 32.625 17.5
    endloop
endfacet
facet normal 0.57735026919 -0.57735026919 0.57735026919
    outer loop
        vertex 35.0 34.0 20.0
        vertex 35.5 33.25 18.75
        vertex 36.125 33.875 18.75
    endloop
endfacet
facet normal 0.57735026919 -0.57735026919 0.57735026919
    outer loop
        vertex 35.0 32.0 18.0
        vertex 35.5 33.25 18.75
        vertex 35.0 34.0 20.0
    endloop
endfacet
facet normal 1.0 0.0 0.0
    outer loop
        vertex 35.0 30.0 18.0
        vertex 35.0 32.0 19.0
        vertex 35.0 30.0 19.0
    endloop
endfacet
facet normal 1.0 0.0 0.0
    outer loop
        vertex 35.0 30.0 18.0
        vertex 35.0 32.0 18.0
        vertex 35.0 32.0 19.0
    endloop
endfacet
facet normal 1.0 0.0 0.0
    outer loop
        vertex 35.0 34.0 20.0
        vertex 35.0 32.0 19.0
        vertex 35.0 32.0 18.0
    endloop
endfacet
facet normal 1.0 0.0 0.0
    outer loop
        vertex 35.0 30.0 18.0
        vertex 35.0 29.0 17.0
        vertex 35.0 32.0 18.0
    endloop
endfacet
facet normal 1.0 0.0 0.0
    outer loop
        vertex 35.0 30.0 16.0
        vertex 35.0 32.0 18.0
        vertex 35.0 29.0 17.0
    endloop
endfacet
facet normal 1.0 0.0 0.0
    outer loop
        vertex 35.0 32.0 19.0
        vertex 35.0 31.0 20.0
        vertex 35.0 30.0 19.0
    endloop
endfacet
facet normal 1.0 0.0 0.0
    outer loop
        vertex 35.0 32.0 19.0
        vertex 35.0 34.0 20.0
        vertex 35.0 33.0 20.0
    endloop
endfacet
facet normal 1.0 0.0 0.0
    outer loop
        vertex 35.0 32.0 19.0
        vertex 35.0 32.0 20.0
        vertex 35.0 31.0 20.0
    endloop
endfacet
facet normal 1.0 0.0 0.0
    outer loop
        vertex 35.0 32.0 20.0
        vertex 35.0 32.0 19.0
        vertex 35.0 33.0 20.0
    endloop
endfacet
facet normal 1.0 0.0 0.0
    outer loop
        vertex 35.0 30.0 19.0
        vertex 35.0 28.0 18.0
        vertex 35.0 30.0 18.0
    endloop
endfacet
facet normal 1.0 0.0 0.0
    outer loop
        vertex 35.0 29.0 17.0
        vertex 35.0 30.0 18.0
        vertex 35.0 28.0 18.0
    endloop
endfacet
facet normal 1.0 0.0 0.0
    outer loop
        vertex 35.0 30.0 19.0
        vertex 35.0 27.0 19.0
        vertex 35.0 28.0 18.0
    endloop
endfacet
facet normal 1.0 0.0 0.0
    outer loop
        vertex 35.0 28.0 20.0
        vertex 35.0 27.0 19.0
        vertex 35.0 30.0 19.0
    endloop
endfacet
facet normal 1.0 0.0 0.0
    outer loop
        vertex 35.0 30.0 19.0
        vertex 35.0 30.0 20.0
        vertex 35.0 29.0 20.0
    endloop
endfacet
facet normal 1.0 0.0 0.0
    outer loop
        vertex 35.0 27.0 19.0
        vertex 35.0 28.0 20.0
        vertex 35.0 27.0 20.0
    endloop
endfacet
facet normal 1.0 0.0 0.0
    outer loop
        vertex 35.0 27.0 19.0
        vertex 35.0 27.0 20.0
        vertex 35.0 26.0 20.0
    endloop
endfacet
facet normal 1.0 0.0 0.0
    outer loop
        vertex 35.0 28.0 20.0
        vertex 35.0 30.0 19.0
        vertex 35.0 29.0 20.0
    endloop
endfacet
facet normal 0.0 -1.0 0.0
    outer loop
        vertex 43.0 35.0 20.0
        vertex 42.0 35.0 18.0
        vertex 44.0 35.0 20.0
    endloop
endfacet
facet normal 0.0 -1.0 0.0
    outer loop
        vertex 42.0 35.0 20.0
        vertex 42.0 35.0 18.0
        vertex 43.0 35.0 20.0
    endloop
endfacet
facet normal 0.0 -1.0 0.0
    outer loop
        vertex 42.0 35.0 18.0
        vertex 42.0 35.0 20.0
        vertex 41.0 35.0 20.0
    endloop
endfacet
facet normal 0.0 -1.0 0.0
    outer loop
        vertex 42.0 35.0 18.0
        vertex 41.0 35.0 20.0
        vertex 40.0 35.0 20.0
    endloop
endfacet
facet normal 0.0 -1.0 0.0
    outer loop
        vertex 40.0 35.0 20.0
        vertex 38.0 35.0 18.0
        vertex 42.0 35.0 18.0
    endloop
endfacet
facet normal 0.0 -1.0 0.0
    outer loop
        vertex 40.0 35.0 20.0
        vertex 39.0 35.0 20.0
        vertex 38.0 35.0 18.0
    endloop
endfacet
facet normal 0.0 -1.0 0.0
    outer loop
        vertex 38.0 35.0 20.0
        vertex 38.0 35.0 18.0
        vertex 39.0 35.0 20.0
    endloop
endfacet
facet normal 0.0 -1.0 0.0
    outer loop
        vertex 40.0 35.0 16.0
        vertex 42.0 35.0 18.0
        vertex 38.0 35.0 18.0
    endloop
endfacet
facet normal 0.0 -1.0 0.0
    outer loop
        vertex 38.0 35.0 18.0
        vertex 38.0 35.0 20.0
        vertex 37.0 35.0 20.0
    endloop
endfacet
facet normal 0.0 -1.0 0.0
    outer loop
        vertex 38.0 35.0 18.0
        vertex 37.0 35.0 20.0
        vertex 36.0 35.0 20.0
    endloop
endfacet
facet normal 0.0 -1.0 0.0
    outer loop
        vertex 42.625 24.75 18.6875
        vertex 40.0 24.75 17.375
        vertex 42.625 24.75 17.375
    endloop
endfacet
facet normal 0.0 -1.0 0.0
    outer loop
        vertex 40.0 24.75 18.6875
        vertex 37.375 24.75 17.375
        vertex 40.0 24.75 17.375
    endloop
endfacet
facet normal 0.0 -1.0 0.0
    outer loop
        vertex 37.375 24.75 18.6875
        vertex 38.9500007629 24.75 20.0
        vertex 37.9000015259 24.75 20.0
    endloop
endfacet
facet normal 0.0 -1.0 0.0
    outer loop
        vertex 42.625 24.75 18.6875
        vertex 42.0999984741 24.75 20.0
        vertex 41.0499992371 24.75 20.0
    endloop
endfacet
facet normal 1.0 0.0 0.0
    outer loop
        vertex 45.25 32.625 18.6875
        vertex 45.25 30.0 17.375
        vertex 45.25 32.625 17.375
    endloop
endfacet
facet normal 1.0 0.0 0.0
    outer loop
        vertex 45.25 30.0 18.6875
        vertex 45.25 27.375 17.375
        vertex 45.25 30.0 17.375
    endloop
endfacet
facet normal 1.0 0.0 0.0
    outer loop
        vertex 45.25 27.375 18.6875
        vertex 45.25 28.9500007629 20.0
        vertex 45.25 27.8999996185 20.0
    endloop
endfacet
facet normal 1.0 0.0 0.0
    outer loop
        vertex 45.25 32.625 18.6875
        vertex 45.25 32.0999984741 20.0
        vertex 45.25 31.0499992371 20.0
    endloop
endfacet
facet normal 0.0 1.0 0.0
    outer loop
        vertex 37.375 35.25 18.6875
        vertex 40.0 35.25 17.375
        vertex 37.375 35.25 17.375
    endloop
endfacet
facet normal 0.0 1.0 0.0
    outer loop
        vertex 40.0 35.25 18.6875
        vertex 42.625 35.25 17.375
        vertex 40.0 35.25 17.375
    endloop
endfacet
facet normal 0.0 1.0 0.0
    outer loop
        vertex 42.625 35.25 18.6875
        vertex 41.0499992371 35.25 20.0
        vertex 42.0999984741 35.25 20.0
    endloop
endfacet
facet normal 0.0 1.0 0.0
    outer loop
        vertex 37.375 35.25 18.6875
        vertex 37.9000015259 35.25 20.0
        vertex 38.9500007629 35.25 20.0
    endloop
endfacet
facet normal -1.0 0.0 0.0
    outer loop
        vertex 34.75 27.375 18.6875
        vertex 34.75 30.0 17.375
        vertex 34.75 27.375 17.375
    endloop
endfacet
facet normal -1.0 0.0 0.0
    outer loop
        vertex 34.75 30.0 18.6875
        vertex 34.75 32.625 17.375
        vertex 34.75 30.0 17.375
    endloop
endfacet
facet normal -1.0 0.0 0.0
    outer loop
        vertex 34.75 32.625 18.6875
        vertex 34.75 31.0499992371 20.0
        vertex 34.75 32.0999984741 20.0
    endloop
endfacet
facet normal -1.0 0.0 0.0
    outer loop
        vertex 34.75 27.375 18.6875
        vertex 34.75 27.8999996185 20.0
        vertex 34.75 28.9500007629 20.0
    endloop
endfacet
facet normal 0.0 0.0 1.0
    outer loop
        vertex 35.0 26.0 20.0
        vertex 34.75 26.8500003815 20.0
        vertex 34.75 25.7999992371 20.0
    endloop
endfacet
facet normal 0.0 0.0 1.0
    outer loop
        vertex 34.75 27.8999996185 20.0
        vertex 35.0 27.0 20.0
        vertex 35.0 28.0 20.0
    endloop
endfacet
facet normal 0.0 0.0 1.0
    outer loop
        vertex 34.75 28.9500007629 20.0
        vertex 35.0 28.0 20.0
        vertex 35.0 29.0 20.0
    endloop
endfacet
facet normal 0.0 0.0 1.0
    outer loop
        vertex 34.75 30.0 20.0
        vertex 35.0 29.0 20.0
        vertex 35.0 30.0 20.0
    endloop
endfacet
facet normal 0.0 0.0 1.0
    outer loop
        vertex 36.8499984741 24.75 20.0
        vertex 37.0 25.0 20.0
        vertex 36.0 25.0 20.0
    endloop
endfacet
facet normal 0.0 0.0 1.0
    outer loop
        vertex 37.9000015259 24.75 20.0
        vertex 38.0 25.0 20.0
        vertex 37.0 25.0 20.0
    endloop
endfacet
facet normal 0.0 0.0 1.0
    outer loop
        vertex 34.75 30.0 20.0
        vertex 35.0 30.0 20.0
        vertex 35.0 31.0 20.0
    endloop
endfacet
facet normal 0.0 0.0 1.0
    outer loop
        vertex 34.75 31.0499992371 20.0
        vertex 35.0 31.0 20.0
        vertex 35.0 32.0 20.0
    endloop
endfacet
facet normal 0.0 0.0 1.0
    outer loop
        vertex 35.0 33.0 20.0
        vertex 34.75 33.1500015259 20.0
        vertex 34.75 32.0999984741 20.0
    endloop
endfacet
facet normal 0.0 0.0 1.0
    outer loop
        vertex 34.75 33.1500015259 20.0
        vertex 35.0 33.0 20.0
        vertex 35.0 34.0 20.0
    endloop
endfacet
facet normal 0.0 0.0 1.0
    outer loop
        vertex 36.0 35.0 20.0
        vertex 36.8499984741 35.25 20.0
        vertex 35.7999992371 35.25 20.0
    endloop
endfacet
facet normal 0.0 0.0 1.0
    outer loop
        vertex 39.0 35.0 20.0
        vertex 40.0 35.25 20.0
        vertex 38.9500007629 35.25 20.0
    endloop
endfacet
facet normal 0.0 0.0 1.0
    outer loop
        vertex 41.0 25.0 20.0
        vertex 40.0 24.75 20.0
        vertex 41.0499992371 24.75 20.0
    endloop
endfacet
facet normal 0.0 0.0 1.0
    outer loop
        vertex 42.0 35.0 20.0
        vertex 42.0999984741 35.25 20.0
        vertex 41.0499992371 35.25 20.0
    endloop
endfacet
facet normal 0.0 0.0 1.0
    outer loop
        vertex 44.0 35.0 20.0
        vertex 44.2000007629 35.25 20.0
        vertex 43.1500015259 35.25 20.0
    endloop
endfacet
facet normal 0.57735026919 -0.57735026919 0.57735026919
    outer loop
        vertex 36.125 33.875 18.75
        vertex 37.375 33.875 17.5
        vertex 36.75 34.5 18.75
    endloop
endfacet
facet normal 0.57735026919 -0.57735026919 0.57735026919
    outer loop
        vertex 35.5 33.25 18.75
        vertex 36.75 33.25 17.5
        vertex 36.125 33.875 18.75
    endloop
endfacet
facet normal 0.57735026919 -0.57735026919 0.57735026919
    outer loop
        vertex 36.0 35.0 20.0
        vertex 35.5 34.5 20.0
        vertex 36.125 33.875 18.75
    endloop
endfacet
facet normal 0.57735026919 -0.57735026919 0.57735026919
    outer loop
        vertex 35.0 34.0 20.0
        vertex 36.125 33.875 18.75
        vertex 35.5 34.5 20.0
    endloop
endfacet
facet normal 1.0 0.0 0.0
    outer loop
        vertex 35.0 31.0 20.0
        vertex 35.0 30.0 20.0
        vertex 35.0 30.0 19.0
    endloop
endfacet
endsolid Mesh
